<svg width="100%" height="100%" viewBox="0 0 1200 630" fill="none" xmlns="http://www.w3.org/2000/svg">
  <defs>
    <linearGradient id="bg" x1="0" y1="0" x2="1200" y2="630" gradientUnits="userSpaceOnUse">
      <stop offset="0" stop-color="#FAF7F2" />
      <stop offset="1" stop-color="#F4EFE6" />
    </linearGradient>
    <linearGradient id="panel" x1="0" y1="0" x2="1" y2="1">
      <stop offset="0" stop-color="#1F2937" />
      <stop offset="1" stop-color="#111827" />
    </linearGradient>
    <linearGradient id="accent" x1="0" y1="0" x2="1" y2="1">
      <stop offset="0" stop-color="#D97706" />
      <stop offset="1" stop-color="#F59E0B" />
    </linearGradient>
  </defs>

  <rect width="1200" height="630" fill="url(#bg)" />
  <circle cx="1020" cy="120" r="170" fill="#EBD9BF" opacity="0.9" />
  <circle cx="170" cy="538" r="220" fill="#D9E7EE" opacity="0.8" />

  <rect x="62" y="60" width="150" height="38" rx="19" fill="#111827" />
  <text x="137" y="84" text-anchor="middle" fill="#F9FAFB" font-size="18" font-family="Georgia, serif" letter-spacing="1.5">NEWS</text>

  <text x="72" y="190" fill="#111827" font-size="58" font-family="Georgia, serif" font-weight="700">
    <tspan x="72" dy="0">PoggioAI / MSc</tspan>
    <tspan x="72" dy="78">Went Online</tspan>
  </text>

  <text x="74" y="350" fill="#374151" font-size="28" font-family="Helvetica, Arial, sans-serif">
    <tspan x="74" dy="0">Project website, technical report, and GitHub</tspan>
    <tspan x="74" dy="38">are now live from the PoggioAI team at MIT.</tspan>
  </text>

  <g opacity="0.95">
    <rect x="760" y="180" width="330" height="240" rx="28" fill="url(#panel)" />
    <rect x="790" y="212" width="96" height="24" rx="12" fill="#F59E0B" opacity="0.95" />
    <text x="838" y="229" text-anchor="middle" fill="#111827" font-size="12" font-family="Helvetica, Arial, sans-serif" font-weight="700" letter-spacing="1.2">PUBLIC RELEASE</text>

    <circle cx="848" cy="304" r="18" fill="#F8FAFC" />
    <circle cx="954" cy="270" r="18" fill="#F8FAFC" />
    <circle cx="1008" cy="346" r="18" fill="#F8FAFC" />
    <circle cx="902" cy="364" r="18" fill="#F8FAFC" />
    <circle cx="1052" cy="290" r="18" fill="#F8FAFC" />

    <path d="M848 304L954 270L1008 346L902 364L848 304Z" stroke="#F59E0B" stroke-width="4" stroke-linecap="round" stroke-linejoin="round" />
    <path d="M954 270L1052 290" stroke="#F59E0B" stroke-width="4" stroke-linecap="round" />
    <path d="M954 270L902 364" stroke="#F59E0B" stroke-width="4" stroke-linecap="round" />
    <path d="M1052 290L1008 346" stroke="#F59E0B" stroke-width="4" stroke-linecap="round" />

    <text x="790" y="462" fill="#E5E7EB" font-size="24" font-family="Helvetica, Arial, sans-serif" font-weight="600">Multi-agent research workflows</text>
    <text x="790" y="494" fill="#9CA3AF" font-size="18" font-family="Helvetica, Arial, sans-serif">Theory. Experiments. Paper synthesis.</text>
  </g>

  <path d="M72 520C168 476 260 470 358 488" stroke="#111827" stroke-width="3" stroke-linecap="round" opacity="0.2" />
  <path d="M74 544C176 520 288 522 404 552" stroke="#D97706" stroke-width="3" stroke-linecap="round" opacity="0.4" />
</svg>
